<svg version="1.1" viewBox="0.0 0.0 790.8346456692914 659.0288713910761" fill="none" stroke="none" stroke-linecap="square" stroke-miterlimit="10" xmlns:xlink="http://www.w3.org/1999/xlink" xmlns="http://www.w3.org/2000/svg"><clipPath id="p.0"><path d="m0 0l790.83466 0l0 659.0289l-790.83466 0l0 -659.0289z" clip-rule="nonzero"/></clipPath><g clip-path="url(#p.0)"><path fill="#000000" fill-opacity="0.0" d="m0 0l790.83466 0l0 659.0289l-790.83466 0z" fill-rule="evenodd"/><path fill="#000000" fill-opacity="0.0" d="m37.737534 63.183727l629.4488 0l0 557.7008l-629.4488 0z" fill-rule="evenodd"/><path stroke="#000000" stroke-width="4.0" stroke-linejoin="round" stroke-linecap="butt" d="m37.737534 63.183727l629.4488 0l0 557.7008l-629.4488 0z" fill-rule="evenodd"/><path fill="#000000" fill-opacity="0.0" d="m37.737534 425.62067l629.4488 0" fill-rule="evenodd"/><path stroke="#0000ff" stroke-width="4.0" stroke-linejoin="round" stroke-linecap="butt" d="m37.737534 425.62067l629.4488 0" fill-rule="evenodd"/><path fill="#000000" fill-opacity="0.0" d="m412.0485 63.183727l0 365.82678" fill-rule="evenodd"/><path stroke="#cc0000" stroke-width="4.0" stroke-linejoin="round" stroke-linecap="butt" d="m412.0485 63.183727l0 365.82678" fill-rule="evenodd"/><path fill="#000000" fill-opacity="0.0" d="m680.6273 379.45145l146.67712 0l0 64.62991l-146.67712 0z" fill-rule="evenodd"/><path fill="#0000ff" d="m691.0648 406.37143l0 -13.25l2.6875 0l0 11.0l6.703125 0l0 2.25l-9.390625 0zm13.208435 -6.71875l-2.328125 -0.421875q0.40625 -1.40625 1.359375 -2.078125q0.953125 -0.671875 2.84375 -0.671875q1.703125 0 2.546875 0.40625q0.84375 0.40625 1.171875 1.03125q0.34375 0.625 0.34375 2.28125l-0.015625 3.0q0 1.265625 0.109375 1.875q0.125 0.609375 0.46875 1.296875l-2.53125 0q-0.109375 -0.25 -0.25 -0.75q-0.0625 -0.234375 -0.09375 -0.3125q-0.65625 0.640625 -1.40625 0.96875q-0.734375 0.3125 -1.59375 0.3125q-1.484375 0 -2.34375 -0.8125q-0.859375 -0.8125 -0.859375 -2.046875q0 -0.828125 0.390625 -1.46875q0.390625 -0.640625 1.09375 -0.96875q0.703125 -0.34375 2.03125 -0.609375q1.796875 -0.328125 2.484375 -0.625l0 -0.25q0 -0.75 -0.359375 -1.0625q-0.359375 -0.3125 -1.375 -0.3125q-0.6875 0 -1.078125 0.28125q-0.375 0.265625 -0.609375 0.9375zm3.421875 2.078125q-0.484375 0.15625 -1.5625 0.390625q-1.0625 0.21875 -1.390625 0.4375q-0.5 0.359375 -0.5 0.90625q0 0.53125 0.40625 0.9375q0.40625 0.390625 1.015625 0.390625q0.703125 0 1.328125 -0.46875q0.46875 -0.34375 0.609375 -0.84375q0.09375 -0.328125 0.09375 -1.25l0 -0.5zm9.485107 -5.03125l0 2.03125l-1.75 0l0 3.90625q0 1.1875 0.046875 1.390625q0.046875 0.1875 0.21875 0.3125q0.1875 0.125 0.4375 0.125q0.359375 0 1.03125 -0.25l0.21875 2.0q-0.890625 0.375 -2.015625 0.375q-0.703125 0 -1.265625 -0.234375q-0.546875 -0.234375 -0.8125 -0.59375q-0.25 -0.375 -0.34375 -1.0q-0.09375 -0.453125 -0.09375 -1.8125l0 -4.21875l-1.171875 0l0 -2.03125l1.171875 0l0 -1.921875l2.578125 -1.5l0 3.421875l1.75 0zm1.7752075 -1.3125l0 -2.375l2.5625 0l0 2.375l-2.5625 0zm0 10.984375l0 -9.671875l2.5625 0l0 9.671875l-2.5625 0zm9.620789 -9.671875l0 2.03125l-1.75 0l0 3.90625q0 1.1875 0.046875 1.390625q0.046875 0.1875 0.21875 0.3125q0.1875 0.125 0.4375 0.125q0.359375 0 1.03125 -0.25l0.21875 2.0q-0.890625 0.375 -2.015625 0.375q-0.703125 0 -1.265625 -0.234375q-0.546875 -0.234375 -0.8125 -0.59375q-0.25 -0.375 -0.34375 -1.0q-0.09375 -0.453125 -0.09375 -1.8125l0 -4.21875l-1.171875 0l0 -2.03125l1.171875 0l0 -1.921875l2.578125 -1.5l0 3.421875l1.75 0zm8.1345215 9.671875l0 -1.453125q-0.53125 0.78125 -1.390625 1.234375q-0.859375 0.4375 -1.8125 0.4375q-0.96875 0 -1.75 -0.421875q-0.765625 -0.4375 -1.125 -1.203125q-0.34375 -0.78125 -0.34375 -2.140625l0 -6.125l2.5625 0l0 4.4375q0 2.046875 0.140625 2.515625q0.140625 0.453125 0.515625 0.71875q0.375 0.265625 0.953125 0.265625q0.65625 0 1.171875 -0.359375q0.515625 -0.359375 0.703125 -0.890625q0.203125 -0.53125 0.203125 -2.609375l0 -4.078125l2.546875 0l0 9.671875l-2.375 0zm13.911621 0l-2.390625 0l0 -1.421875q-0.59375 0.828125 -1.40625 1.234375q-0.796875 0.40625 -1.609375 0.40625q-1.671875 0 -2.859375 -1.34375q-1.1875 -1.34375 -1.1875 -3.75q0 -2.453125 1.15625 -3.734375q1.15625 -1.28125 2.921875 -1.28125q1.625 0 2.8125 1.34375l0 -4.8125l2.5625 0l0 13.359375zm-6.84375 -5.046875q0 1.546875 0.4375 2.234375q0.609375 1.015625 1.71875 1.015625q0.890625 0 1.5 -0.75q0.625 -0.765625 0.625 -2.25q0 -1.671875 -0.609375 -2.40625q-0.59375 -0.734375 -1.53125 -0.734375q-0.90625 0 -1.53125 0.734375q-0.609375 0.71875 -0.609375 2.15625zm14.958496 1.96875l2.546875 0.421875q-0.484375 1.40625 -1.546875 2.140625q-1.0625 0.734375 -2.65625 0.734375q-2.515625 0 -3.734375 -1.65625q-0.953125 -1.3125 -0.953125 -3.328125q0 -2.40625 1.25 -3.765625q1.265625 -1.359375 3.1875 -1.359375q2.15625 0 3.40625 1.421875q1.25 1.421875 1.1875 4.375l-6.40625 0q0.03125 1.140625 0.609375 1.78125q0.59375 0.625 1.484375 0.625q0.59375 0 1.0 -0.328125q0.421875 -0.328125 0.625 -1.0625zm0.15625 -2.59375q-0.03125 -1.109375 -0.578125 -1.6875q-0.546875 -0.578125 -1.328125 -0.578125q-0.84375 0 -1.390625 0.609375q-0.546875 0.609375 -0.53125 1.65625l3.828125 0zm9.137146 1.328125l2.625 -0.25q0.234375 1.3125 0.953125 1.9375q0.734375 0.609375 1.96875 0.609375q1.296875 0 1.953125 -0.546875q0.671875 -0.546875 0.671875 -1.28125q0 -0.484375 -0.28125 -0.8125q-0.28125 -0.328125 -0.96875 -0.578125q-0.484375 -0.15625 -2.171875 -0.578125q-2.15625 -0.546875 -3.03125 -1.328125q-1.234375 -1.09375 -1.234375 -2.6875q0 -1.015625 0.578125 -1.90625q0.578125 -0.890625 1.65625 -1.34375q1.09375 -0.46875 2.640625 -0.46875q2.515625 0 3.78125 1.109375q1.28125 1.09375 1.34375 2.9375l-2.703125 0.109375q-0.171875 -1.03125 -0.75 -1.46875q-0.5625 -0.453125 -1.703125 -0.453125q-1.171875 0 -1.84375 0.46875q-0.421875 0.3125 -0.421875 0.84375q0 0.46875 0.40625 0.796875q0.5 0.4375 2.46875 0.90625q1.96875 0.453125 2.90625 0.953125q0.953125 0.5 1.484375 1.359375q0.53125 0.859375 0.53125 2.125q0 1.15625 -0.640625 2.15625q-0.640625 1.0 -1.8125 1.484375q-1.15625 0.484375 -2.890625 0.484375q-2.53125 0 -3.890625 -1.171875q-1.359375 -1.171875 -1.625 -3.40625zm13.0372925 -5.328125l2.390625 0l0 1.421875q0.46875 -0.734375 1.25 -1.1875q0.796875 -0.453125 1.765625 -0.453125q1.6875 0 2.859375 1.328125q1.171875 1.3125 1.171875 3.671875q0 2.421875 -1.1875 3.765625q-1.1875 1.34375 -2.859375 1.34375q-0.8125 0 -1.46875 -0.3125q-0.640625 -0.328125 -1.359375 -1.09375l0 4.875l-2.5625 0l0 -13.359375zm2.53125 4.671875q0 1.625 0.640625 2.40625q0.65625 0.78125 1.578125 0.78125q0.90625 0 1.484375 -0.71875q0.59375 -0.71875 0.59375 -2.34375q0 -1.515625 -0.609375 -2.25q-0.609375 -0.75 -1.515625 -0.75q-0.9375 0 -1.5625 0.734375q-0.609375 0.71875 -0.609375 2.140625zm8.942871 5.0l0 -13.359375l2.5625 0l0 13.359375l-2.5625 0zm5.1832886 -10.984375l0 -2.375l2.5625 0l0 2.375l-2.5625 0zm0 10.984375l0 -9.671875l2.5625 0l0 9.671875l-2.5625 0zm9.62085 -9.671875l0 2.03125l-1.75 0l0 3.90625q0 1.1875 0.046875 1.390625q0.046875 0.1875 0.21875 0.3125q0.1875 0.125 0.4375 0.125q0.359375 0 1.03125 -0.25l0.21875 2.0q-0.890625 0.375 -2.015625 0.375q-0.703125 0 -1.265625 -0.234375q-0.546875 -0.234375 -0.8125 -0.59375q-0.25 -0.375 -0.34375 -1.0q-0.09375 -0.453125 -0.09375 -1.8125l0 -4.21875l-1.171875 0l0 -2.03125l1.171875 0l0 -1.921875l2.578125 -1.5l0 3.421875l1.75 0zm0.8688965 6.90625l2.5625 -0.390625q0.171875 0.75 0.671875 1.140625q0.5 0.390625 1.40625 0.390625q0.984375 0 1.484375 -0.375q0.34375 -0.25 0.34375 -0.671875q0 -0.296875 -0.1875 -0.484375q-0.1875 -0.1875 -0.859375 -0.34375q-3.09375 -0.6875 -3.921875 -1.25q-1.140625 -0.78125 -1.140625 -2.171875q0 -1.265625 0.984375 -2.109375q1.0 -0.859375 3.078125 -0.859375q1.984375 0 2.953125 0.65625q0.96875 0.640625 1.328125 1.90625l-2.40625 0.4375q-0.15625 -0.5625 -0.59375 -0.859375q-0.421875 -0.296875 -1.234375 -0.296875q-1.0 0 -1.4375 0.28125q-0.296875 0.203125 -0.296875 0.515625q0 0.265625 0.25 0.46875q0.34375 0.25 2.390625 0.71875q2.046875 0.453125 2.859375 1.140625q0.796875 0.671875 0.796875 1.890625q0 1.34375 -1.109375 2.296875q-1.109375 0.953125 -3.28125 0.953125q-1.984375 0 -3.140625 -0.796875q-1.140625 -0.8125 -1.5 -2.1875z" fill-rule="nonzero"/><path fill="#000000" fill-opacity="0.0" d="m294.03937 13.729659l201.88977 0l0 42.015747l-201.88977 0z" fill-rule="evenodd"/><path fill="#cc0000" d="m304.47687 40.64966l0 -13.250002l2.6875 0l0 11.000002l6.703125 0l0 2.25l-9.390625 0zm10.708496 -4.96875q0 -1.28125 0.625 -2.46875q0.625 -1.203125 1.78125 -1.8281269q1.15625 -0.625 2.578125 -0.625q2.1875 0 3.59375 1.4218769q1.40625 1.421875 1.40625 3.609375q0 2.1875 -1.421875 3.640625q-1.421875 1.4375 -3.5625 1.4375q-1.328125 0 -2.546875 -0.59375q-1.203125 -0.609375 -1.828125 -1.765625q-0.625 -1.171875 -0.625 -2.828125zm2.625 0.125q0 1.453125 0.671875 2.21875q0.6875 0.75 1.6875 0.75q1.0 0 1.671875 -0.75q0.6875 -0.765625 0.6875 -2.234375q0 -1.421875 -0.6875 -2.1875q-0.671875 -0.765625 -1.671875 -0.765625q-1.0 0 -1.6875 0.765625q-0.671875 0.765625 -0.671875 2.203125zm18.16159 4.84375l-2.5625 0l0 -4.9375q0 -1.5625 -0.171875 -2.015625q-0.15625 -0.46875 -0.53125 -0.71875q-0.359375 -0.265625 -0.875 -0.265625q-0.671875 0 -1.203125 0.375q-0.53125 0.359375 -0.734375 0.96875q-0.1875 0.59375 -0.1875 2.21875l0 4.375l-2.546875 0l0 -9.671877l2.375 0l0 1.4218769q1.265625 -1.6406269 3.1875 -1.6406269q0.84375 0 1.546875 0.3125q0.703125 0.296875 1.0625 0.78125q0.359375 0.4687519 0.5 1.0781269q0.140625 0.59375 0.140625 1.703125l0 6.015625zm2.364746 0.640625l2.921875 0.359375q0.0625 0.5 0.328125 0.6875q0.375 0.28125 1.15625 0.28125q1.0 0 1.5 -0.296875q0.328125 -0.203125 0.515625 -0.65625q0.109375 -0.3125 0.109375 -1.171875l0 -1.40625q-1.140625 1.5625 -2.890625 1.5625q-1.953125 0 -3.09375 -1.65625q-0.890625 -1.296875 -0.890625 -3.234375q0 -2.4375 1.171875 -3.71875q1.171875 -1.2812519 2.90625 -1.2812519q1.796875 0 2.96875 1.5781269l0 -1.3593769l2.390625 0l0 8.671877q0 1.71875 -0.28125 2.5625q-0.28125 0.84375 -0.796875 1.328125q-0.5 0.484375 -1.359375 0.75q-0.84375 0.28125 -2.15625 0.28125q-2.453125 0 -3.484375 -0.84375q-1.03125 -0.84375 -1.03125 -2.125q0 -0.140625 0.015625 -0.3125zm2.28125 -5.671875q0 1.53125 0.59375 2.25q0.59375 0.71875 1.46875 0.71875q0.9375 0 1.578125 -0.734375q0.65625 -0.734375 0.65625 -2.171875q0 -1.515625 -0.625 -2.234375q-0.609375 -0.734375 -1.5625 -0.734375q-0.921875 0 -1.515625 0.71875q-0.59375 0.71875 -0.59375 2.1875zm9.349091 -5.953127l0 -2.375l2.5625 0l0 2.375l-2.5625 0zm0 10.984377l0 -9.671877l2.5625 0l0 9.671877l-2.5625 0zm9.620819 -9.671877l0 2.031252l-1.75 0l0 3.90625q0 1.1875 0.046875 1.390625q0.046875 0.1875 0.21875 0.3125q0.1875 0.125 0.4375 0.125q0.359375 0 1.03125 -0.25l0.21875 2.0q-0.890625 0.375 -2.015625 0.375q-0.703125 0 -1.265625 -0.234375q-0.546875 -0.234375 -0.8125 -0.59375q-0.25 -0.375 -0.34375 -1.0q-0.09375 -0.453125 -0.09375 -1.8125l0 -4.21875l-1.171875 0l0 -2.031252l1.171875 0l0 -1.921875l2.578125 -1.5l0 3.421875l1.75 0zm8.134552 9.671877l0 -1.453125q-0.53125 0.78125 -1.390625 1.234375q-0.859375 0.4375 -1.8125 0.4375q-0.96875 0 -1.75 -0.421875q-0.765625 -0.4375 -1.125 -1.203125q-0.34375 -0.78125 -0.34375 -2.140625l0 -6.125002l2.5625 0l0 4.437502q0 2.046875 0.140625 2.515625q0.140625 0.453125 0.515625 0.71875q0.375 0.265625 0.953125 0.265625q0.65625 0 1.171875 -0.359375q0.515625 -0.359375 0.703125 -0.890625q0.203125 -0.53125 0.203125 -2.609375l0 -4.078127l2.546875 0l0 9.671877l-2.375 0zm13.911591 0l-2.390625 0l0 -1.421875q-0.59375 0.828125 -1.40625 1.234375q-0.796875 0.40625 -1.609375 0.40625q-1.671875 0 -2.859375 -1.34375q-1.1875 -1.34375 -1.1875 -3.75q0 -2.453125 1.15625 -3.734375q1.15625 -1.2812519 2.921875 -1.2812519q1.625 0 2.8125 1.3437519l0 -4.812502l2.5625 0l0 13.359377zm-6.84375 -5.046875q0 1.546875 0.4375 2.234375q0.609375 1.015625 1.71875 1.015625q0.890625 0 1.5 -0.75q0.625 -0.765625 0.625 -2.25q0 -1.671875 -0.609375 -2.40625q-0.59375 -0.734375 -1.53125 -0.734375q-0.90625 0 -1.53125 0.734375q-0.609375 0.71875 -0.609375 2.15625zm14.958496 1.96875l2.546875 0.421875q-0.484375 1.40625 -1.546875 2.140625q-1.0625 0.734375 -2.65625 0.734375q-2.515625 0 -3.734375 -1.65625q-0.953125 -1.3125 -0.953125 -3.328125q0 -2.40625 1.25 -3.765625q1.265625 -1.3593769 3.1875 -1.3593769q2.15625 0 3.40625 1.4218769q1.25 1.421875 1.1875 4.375l-6.40625 0q0.03125 1.140625 0.609375 1.78125q0.59375 0.625 1.484375 0.625q0.59375 0 1.0 -0.328125q0.421875 -0.328125 0.625 -1.0625zm0.15625 -2.59375q-0.03125 -1.109375 -0.578125 -1.6875q-0.546875 -0.578125 -1.328125 -0.578125q-0.84375 0 -1.390625 0.609375q-0.546875 0.609375 -0.53125 1.65625l3.828125 0zm9.137146 1.328125l2.625 -0.25q0.234375 1.3125 0.953125 1.9375q0.734375 0.609375 1.96875 0.609375q1.296875 0 1.953125 -0.546875q0.671875 -0.546875 0.671875 -1.28125q0 -0.484375 -0.28125 -0.8125q-0.28125 -0.328125 -0.96875 -0.578125q-0.484375 -0.15625 -2.171875 -0.578125q-2.15625 -0.546875 -3.03125 -1.328125q-1.234375 -1.09375 -1.234375 -2.687502q0 -1.015625 0.578125 -1.90625q0.578125 -0.890625 1.65625 -1.34375q1.09375 -0.46875 2.640625 -0.46875q2.515625 0 3.78125 1.109375q1.28125 1.09375 1.34375 2.9375l-2.703125 0.109375q-0.171875 -1.03125 -0.75 -1.46875q-0.5625 -0.453125 -1.703125 -0.453125q-1.171875 0 -1.84375 0.46875q-0.421875 0.3125 -0.421875 0.84375q0 0.46875 0.40625 0.796875q0.5 0.4375 2.46875 0.9062519q1.96875 0.453125 2.90625 0.953125q0.953125 0.5 1.484375 1.359375q0.53125 0.859375 0.53125 2.125q0 1.15625 -0.640625 2.15625q-0.640625 1.0 -1.8125 1.484375q-1.15625 0.484375 -2.890625 0.484375q-2.53125 0 -3.890625 -1.171875q-1.359375 -1.171875 -1.625 -3.40625zm13.037323 -5.328127l2.390625 0l0 1.4218769q0.46875 -0.7343769 1.25 -1.1875019q0.796875 -0.453125 1.765625 -0.453125q1.6875 0 2.859375 1.3281269q1.171875 1.3125 1.171875 3.671875q0 2.421875 -1.1875 3.765625q-1.1875 1.34375 -2.859375 1.34375q-0.8125 0 -1.46875 -0.3125q-0.640625 -0.328125 -1.359375 -1.09375l0 4.875l-2.5625 0l0 -13.359377zm2.53125 4.671877q0 1.625 0.640625 2.40625q0.65625 0.78125 1.578125 0.78125q0.90625 0 1.484375 -0.71875q0.59375 -0.71875 0.59375 -2.34375q0 -1.515625 -0.609375 -2.25q-0.609375 -0.75 -1.515625 -0.75q-0.9375 0 -1.5625 0.734375q-0.609375 0.71875 -0.609375 2.140625zm8.942841 5.0l0 -13.359377l2.5625 0l0 13.359377l-2.5625 0zm5.183319 -10.984377l0 -2.375l2.5625 0l0 2.375l-2.5625 0zm0 10.984377l0 -9.671877l2.5625 0l0 9.671877l-2.5625 0zm9.620789 -9.671877l0 2.031252l-1.75 0l0 3.90625q0 1.1875 0.046875 1.390625q0.046875 0.1875 0.21875 0.3125q0.1875 0.125 0.4375 0.125q0.359375 0 1.03125 -0.25l0.21875 2.0q-0.890625 0.375 -2.015625 0.375q-0.703125 0 -1.265625 -0.234375q-0.546875 -0.234375 -0.8125 -0.59375q-0.25 -0.375 -0.34375 -1.0q-0.09375 -0.453125 -0.09375 -1.8125l0 -4.21875l-1.171875 0l0 -2.031252l1.171875 0l0 -1.921875l2.578125 -1.5l0 3.421875l1.75 0zm0.868927 6.906252l2.5625 -0.390625q0.171875 0.75 0.671875 1.140625q0.5 0.390625 1.40625 0.390625q0.984375 0 1.484375 -0.375q0.34375 -0.25 0.34375 -0.671875q0 -0.296875 -0.1875 -0.484375q-0.1875 -0.1875 -0.859375 -0.34375q-3.09375 -0.6875 -3.921875 -1.25q-1.140625 -0.78125 -1.140625 -2.171875q0 -1.265625 0.984375 -2.109377q1.0 -0.859375 3.078125 -0.859375q1.984375 0 2.953125 0.65625q0.96875 0.6406269 1.328125 1.9062519l-2.40625 0.4375q-0.15625 -0.5625 -0.59375 -0.859375q-0.421875 -0.296875 -1.234375 -0.296875q-1.0 0 -1.4375 0.28125q-0.296875 0.203125 -0.296875 0.515625q0 0.265625 0.25 0.46875q0.34375 0.25 2.390625 0.71875q2.046875 0.453125 2.859375 1.140625q0.796875 0.671875 0.796875 1.890625q0 1.34375 -1.109375 2.296875q-1.109375 0.953125 -3.28125 0.953125q-1.984375 0 -3.140625 -0.796875q-1.140625 -0.8125 -1.5 -2.1875z" fill-rule="nonzero"/><path fill="#000000" fill-opacity="0.0" d="m276.87213 426.32022l-1.7952576 193.00784" fill-rule="evenodd"/><path stroke="#cc0000" stroke-width="4.0" stroke-linejoin="round" stroke-linecap="butt" d="m276.87213 426.32022l-1.7952576 193.00784" fill-rule="evenodd"/><path fill="#000000" fill-opacity="0.0" d="m269.46982 568.2362l0 0c0 -3.4702759 2.813202 -6.2834473 6.283478 -6.2834473l0 0c1.6664734 0 3.264679 0.6619873 4.443054 1.8403931c1.1783752 1.1783447 1.8403931 2.7766113 1.8403931 4.443054l0 0c0 3.4702759 -2.813202 6.2835083 -6.2834473 6.2835083l0 0c-3.4702759 0 -6.283478 -2.8132324 -6.283478 -6.2835083z" fill-rule="evenodd"/><path stroke="#38761d" stroke-width="3.0" stroke-linejoin="round" stroke-linecap="butt" d="m269.46982 568.2362l0 0c0 -3.4702759 2.813202 -6.2834473 6.283478 -6.2834473l0 0c1.6664734 0 3.264679 0.6619873 4.443054 1.8403931c1.1783752 1.1783447 1.8403931 2.7766113 1.8403931 4.443054l0 0c0 3.4702759 -2.813202 6.2835083 -6.2834473 6.2835083l0 0c-3.4702759 0 -6.283478 -2.8132324 -6.283478 -6.2835083z" fill-rule="evenodd"/><path fill="#000000" fill-opacity="0.0" d="m250.10498 568.2546l60.0 0l0 42.015747l-60.0 0z" fill-rule="evenodd"/><path fill="#0000ff" d="m264.22998 581.7684q1.9375 0 3.03125 1.375q1.296875 1.640625 1.296875 5.4375q0 3.796875 -1.3125 5.453125q-1.078125 1.375 -3.015625 1.375q-1.953125 0 -3.15625 -1.5q-1.1875 -1.5 -1.1875 -5.34375q0 -3.78125 1.3125 -5.4375q1.078125 -1.359375 3.03125 -1.359375zm0 2.125q-0.46875 0 -0.84375 0.296875q-0.359375 0.296875 -0.5625 1.0625q-0.25 0.984375 -0.25 3.328125q0 2.359375 0.234375 3.234375q0.234375 0.875 0.59375 1.171875q0.359375 0.296875 0.828125 0.296875q0.453125 0 0.8125 -0.296875q0.375 -0.296875 0.578125 -1.0625q0.265625 -0.984375 0.265625 -3.34375q0 -2.34375 -0.25 -3.21875q-0.234375 -0.875 -0.59375 -1.171875q-0.359375 -0.296875 -0.8125 -0.296875z" fill-rule="nonzero"/><path fill="#000000" d="m274.63275 595.409l3.3125 -13.8125l1.921875 0l-3.34375 13.8125l-1.890625 0z" fill-rule="nonzero"/><path fill="#cc0000" d="m285.73373 591.62775l2.46875 -0.296875q0.125 0.953125 0.640625 1.453125q0.53125 0.5 1.265625 0.5q0.78125 0 1.328125 -0.59375q0.546875 -0.609375 0.546875 -1.640625q0 -0.953125 -0.53125 -1.515625q-0.515625 -0.578125 -1.25 -0.578125q-0.5 0 -1.1875 0.203125l0.28125 -2.09375q1.046875 0.03125 1.59375 -0.4375q0.546875 -0.484375 0.546875 -1.28125q0 -0.671875 -0.40625 -1.078125q-0.390625 -0.40625 -1.0625 -0.40625q-0.65625 0 -1.125 0.46875q-0.453125 0.453125 -0.5625 1.328125l-2.359375 -0.40625q0.25 -1.203125 0.734375 -1.921875q0.5 -0.734375 1.390625 -1.140625q0.890625 -0.421875 2.0 -0.421875q1.875 0 3.015625 1.203125q0.9375 0.984375 0.9375 2.21875q0 1.765625 -1.921875 2.8125q1.15625 0.234375 1.84375 1.09375q0.6875 0.859375 0.6875 2.0625q0 1.765625 -1.296875 3.015625q-1.28125 1.234375 -3.1875 1.234375q-1.8125 0 -3.015625 -1.046875q-1.1875 -1.046875 -1.375 -2.734375z" fill-rule="nonzero"/><path fill="#000000" fill-opacity="0.0" d="m510.46457 496.46457l0 0c0 -3.4702759 2.813202 -6.283478 6.283478 -6.283478l0 0c1.6664429 0 3.2647095 0.6620178 4.443054 1.8403931c1.1784058 1.1783752 1.8403931 2.7766113 1.8403931 4.4430847l0 0c0 3.4702454 -2.8131714 6.2834473 -6.2834473 6.2834473l0 0c-3.4702759 0 -6.283478 -2.813202 -6.283478 -6.2834473z" fill-rule="evenodd"/><path stroke="#38761d" stroke-width="3.0" stroke-linejoin="round" stroke-linecap="butt" d="m510.46457 496.46457l0 0c0 -3.4702759 2.813202 -6.283478 6.283478 -6.283478l0 0c1.6664429 0 3.2647095 0.6620178 4.443054 1.8403931c1.1784058 1.1783752 1.8403931 2.7766113 1.8403931 4.4430847l0 0c0 3.4702454 -2.8131714 6.2834473 -6.2834473 6.2834473l0 0c-3.4702759 0 -6.283478 -2.813202 -6.283478 -6.2834473z" fill-rule="evenodd"/><path fill="#000000" fill-opacity="0.0" d="m486.74802 495.937l60.00003 0l0 42.015747l-60.00003 0z" fill-rule="evenodd"/><path fill="#0000ff" d="m503.09177 522.857l-2.5625 0l0 -9.640625q-1.40625 1.3125 -3.3125 1.9375l0 -2.328125q1.015625 -0.328125 2.1875 -1.234375q1.171875 -0.921875 1.609375 -2.140625l2.078125 0l0 13.40625z" fill-rule="nonzero"/><path fill="#000000" d="m511.2758 523.0914l3.3125305 -13.8125l1.921875 0l-3.34375 13.8125l-1.8906555 0z" fill-rule="nonzero"/><path fill="#cc0000" d="m522.5018 519.4195l2.546875 -0.265625q0.109375 0.875 0.640625 1.375q0.546875 0.5 1.25 0.5q0.796875 0 1.34375 -0.640625q0.5625 -0.65625 0.5625 -1.96875q0 -1.234375 -0.546875 -1.84375q-0.546875 -0.609375 -1.4375 -0.609375q-1.09375 0 -1.96875 0.96875l-2.078125 -0.296875l1.3125 -6.953125l6.765625 0l0 2.390625l-4.828125 0l-0.40625 2.265625q0.859375 -0.421875 1.75 -0.421875q1.703125 0 2.890625 1.25q1.1875 1.234375 1.1875 3.203125q0 1.65625 -0.953125 2.9375q-1.3125 1.78125 -3.625 1.78125q-1.84375 0 -3.015625 -1.0q-1.15625 -1.0 -1.390625 -2.671875z" fill-rule="nonzero"/><path fill="#000000" fill-opacity="0.0" d="m83.46719 475.6614l0 0c0 -3.4702454 2.813202 -6.2834473 6.2834625 -6.2834473l0 0c1.666481 0 3.2647018 0.6619873 4.443077 1.8403625c1.1783829 1.1784058 1.8403854 2.7766113 1.8403854 4.4430847l0 0c0 3.4702759 -2.813202 6.283478 -6.2834625 6.283478l0 0c-3.4702606 0 -6.2834625 -2.813202 -6.2834625 -6.283478z" fill-rule="evenodd"/><path stroke="#38761d" stroke-width="3.0" stroke-linejoin="round" stroke-linecap="butt" d="m83.46719 475.6614l0 0c0 -3.4702454 2.813202 -6.2834473 6.2834625 -6.2834473l0 0c1.666481 0 3.2647018 0.6619873 4.443077 1.8403625c1.1783829 1.1784058 1.8403854 2.7766113 1.8403854 4.4430847l0 0c0 3.4702759 -2.813202 6.283478 -6.2834625 6.283478l0 0c-3.4702606 0 -6.2834625 -2.813202 -6.2834625 -6.283478z" fill-rule="evenodd"/><path fill="#000000" fill-opacity="0.0" d="m59.26409 474.935l60.0 0l0 42.015747l-60.0 0z" fill-rule="evenodd"/><path fill="#0000ff" d="m77.70159 499.48l0 2.375l-8.96875 0q0.140625 -1.34375 0.859375 -2.546875q0.734375 -1.21875 2.890625 -3.203125q1.734375 -1.625 2.125 -2.1875q0.53125 -0.796875 0.53125 -1.578125q0 -0.84375 -0.46875 -1.296875q-0.453125 -0.46875 -1.265625 -0.46875q-0.796875 0 -1.28125 0.484375q-0.46875 0.46875 -0.546875 1.59375l-2.546875 -0.25q0.234375 -2.109375 1.421875 -3.03125q1.203125 -0.921875 3.015625 -0.921875q1.96875 0 3.09375 1.0625q1.140625 1.0625 1.140625 2.65625q0 0.890625 -0.328125 1.71875q-0.3125 0.8125 -1.015625 1.703125q-0.46875 0.59375 -1.6875 1.703125q-1.203125 1.109375 -1.53125 1.484375q-0.3125 0.359375 -0.515625 0.703125l5.078125 0z" fill-rule="nonzero"/><path fill="#000000" d="m83.79186 502.0894l3.3125 -13.8125l1.921875 0l-3.34375 13.8125l-1.890625 0z" fill-rule="nonzero"/><path fill="#cc0000" d="m99.31472 488.44876q1.9375 0 3.03125 1.375q1.296875 1.640625 1.296875 5.4375q0 3.796875 -1.3125 5.453125q-1.078125 1.375 -3.015625 1.375q-1.953125 0 -3.15625 -1.5q-1.1875 -1.5 -1.1875 -5.34375q0 -3.78125 1.3125 -5.4375q1.078125 -1.359375 3.03125 -1.359375zm0 2.125q-0.46875 0 -0.84375 0.296875q-0.359375 0.296875 -0.5625 1.0625q-0.25 0.984375 -0.25 3.328125q0 2.359375 0.234375 3.234375q0.234375 0.875 0.59375 1.171875q0.359375 0.296875 0.828125 0.296875q0.453125 0 0.8125 -0.296875q0.375 -0.296875 0.578125 -1.0625q0.265625 -0.984375 0.265625 -3.34375q0 -2.34375 -0.25 -3.21875q-0.234375 -0.875 -0.59375 -1.171875q-0.359375 -0.296875 -0.8125 -0.296875z" fill-rule="nonzero"/><path fill="#000000" fill-opacity="0.0" d="m171.95538 426.04987l0 0c0 -3.4702454 2.813202 -6.2834473 6.2834625 -6.2834473l0 0c1.6664734 0 3.2646942 0.6619873 4.4430847 1.8403625c1.1783752 1.1783752 1.8403778 2.7766113 1.8403778 4.4430847l0 0c0 3.4702759 -2.813202 6.283478 -6.2834625 6.283478l0 0c-3.4702606 0 -6.2834625 -2.813202 -6.2834625 -6.283478z" fill-rule="evenodd"/><path stroke="#38761d" stroke-width="3.0" stroke-linejoin="round" stroke-linecap="butt" d="m171.95538 426.04987l0 0c0 -3.4702454 2.813202 -6.2834473 6.2834625 -6.2834473l0 0c1.6664734 0 3.2646942 0.6619873 4.4430847 1.8403625c1.1783752 1.1783752 1.8403778 2.7766113 1.8403778 4.4430847l0 0c0 3.4702759 -2.813202 6.283478 -6.2834625 6.283478l0 0c-3.4702606 0 -6.2834625 -2.813202 -6.2834625 -6.283478z" fill-rule="evenodd"/><path fill="#000000" fill-opacity="0.0" d="m151.9515 429.64343l60.0 0l0 42.015747l-60.0 0z" fill-rule="evenodd"/><path fill="#0000ff" d="m161.65463 453.01654l2.46875 -0.296875q0.125 0.953125 0.640625 1.453125q0.53125 0.5 1.265625 0.5q0.78125 0 1.328125 -0.59375q0.546875 -0.609375 0.546875 -1.640625q0 -0.953125 -0.53125 -1.515625q-0.515625 -0.578125 -1.25 -0.578125q-0.5 0 -1.1875 0.203125l0.28125 -2.09375q1.046875 0.03125 1.59375 -0.4375q0.546875 -0.484375 0.546875 -1.28125q0 -0.671875 -0.40625 -1.078125q-0.390625 -0.40625 -1.0625 -0.40625q-0.65625 0 -1.125 0.46875q-0.453125 0.453125 -0.5625 1.328125l-2.359375 -0.40625q0.25 -1.203125 0.734375 -1.921875q0.5 -0.734375 1.390625 -1.140625q0.890625 -0.421875 2.0 -0.421875q1.875 0 3.015625 1.203125q0.9375 0.984375 0.9375 2.21875q0 1.765625 -1.921875 2.8125q1.15625 0.234375 1.84375 1.09375q0.6875 0.859375 0.6875 2.0625q0 1.765625 -1.296875 3.015625q-1.28125 1.234375 -3.1875 1.234375q-1.8125 0 -3.015625 -1.046875q-1.1875 -1.046875 -1.375 -2.734375z" fill-rule="nonzero"/><path fill="#000000" d="m176.47928 456.7978l3.3125 -13.8125l1.921875 0l-3.34375 13.8125l-1.890625 0z" fill-rule="nonzero"/><path fill="#cc0000" d="m196.31464 454.18842l0 2.375l-8.96875 0q0.140625 -1.34375 0.859375 -2.546875q0.734375 -1.21875 2.890625 -3.203125q1.734375 -1.625 2.125 -2.1875q0.53125 -0.796875 0.53125 -1.578125q0 -0.84375 -0.46875 -1.296875q-0.453125 -0.46875 -1.265625 -0.46875q-0.796875 0 -1.28125 0.484375q-0.46875 0.46875 -0.546875 1.59375l-2.546875 -0.25q0.234375 -2.109375 1.421875 -3.03125q1.203125 -0.921875 3.015625 -0.921875q1.96875 0 3.09375 1.0625q1.140625 1.0625 1.140625 2.65625q0 0.890625 -0.328125 1.71875q-0.3125 0.8125 -1.015625 1.703125q-0.46875 0.59375 -1.6875 1.703125q-1.203125 1.109375 -1.53125 1.484375q-0.3125 0.359375 -0.515625 0.703125l5.078125 0z" fill-rule="nonzero"/><path fill="#000000" fill-opacity="0.0" d="m110.367455 393.15485l0 0c0 -3.4702454 2.813202 -6.2834473 6.2834625 -6.2834473l0 0c1.666481 0 3.2647018 0.6619873 4.4430847 1.8403625c1.1783752 1.1784058 1.8403778 2.7766113 1.8403778 4.4430847l0 0c0 3.4702759 -2.813202 6.283478 -6.2834625 6.283478l0 0c-3.4702606 0 -6.2834625 -2.813202 -6.2834625 -6.283478z" fill-rule="evenodd"/><path stroke="#38761d" stroke-width="3.0" stroke-linejoin="round" stroke-linecap="butt" d="m110.367455 393.15485l0 0c0 -3.4702454 2.813202 -6.2834473 6.2834625 -6.2834473l0 0c1.666481 0 3.2647018 0.6619873 4.4430847 1.8403625c1.1783752 1.1784058 1.8403778 2.7766113 1.8403778 4.4430847l0 0c0 3.4702759 -2.813202 6.283478 -6.2834625 6.283478l0 0c-3.4702606 0 -6.2834625 -2.813202 -6.2834625 -6.283478z" fill-rule="evenodd"/><path fill="#000000" fill-opacity="0.0" d="m83.46719 394.64566l60.0 0l0 42.015747l-60.0 0z" fill-rule="evenodd"/><path fill="#0000ff" d="m98.27969 421.56567l0 -2.6875l-5.46875 0l0 -2.234375l5.796875 -8.484375l2.15625 0l0 8.46875l1.65625 0l0 2.25l-1.65625 0l0 2.6875l-2.484375 0zm0 -4.9375l0 -4.5625l-3.078125 4.5625l3.078125 0z" fill-rule="nonzero"/><path fill="#000000" d="m107.994965 421.80005l3.3125 -13.8125l1.921875 0l-3.34375 13.8125l-1.890625 0z" fill-rule="nonzero"/><path fill="#cc0000" d="m125.73657 421.56567l-2.5625 0l0 -9.640625q-1.40625 1.3125 -3.3125 1.9375l0 -2.328125q1.015625 -0.328125 2.1875 -1.234375q1.171875 -0.921875 1.609375 -2.140625l2.078125 0l0 13.40625z" fill-rule="nonzero"/><path fill="#000000" fill-opacity="0.0" d="m406.36746 281.15485l0 0c0 -3.4702454 2.813202 -6.2834473 6.2834473 -6.2834473l0 0c1.6664734 0 3.2647095 0.6619873 4.4430847 1.8403625c1.1783752 1.1784058 1.8403931 2.7766113 1.8403931 4.4430847l0 0c0 3.4702759 -2.813202 6.283478 -6.283478 6.283478l0 0c-3.4702454 0 -6.2834473 -2.813202 -6.2834473 -6.283478z" fill-rule="evenodd"/><path stroke="#38761d" stroke-width="3.0" stroke-linejoin="round" stroke-linecap="butt" d="m406.36746 281.15485l0 0c0 -3.4702454 2.813202 -6.2834473 6.2834473 -6.2834473l0 0c1.6664734 0 3.2647095 0.6619873 4.4430847 1.8403625c1.1783752 1.1784058 1.8403931 2.7766113 1.8403931 4.4430847l0 0c0 3.4702759 -2.813202 6.283478 -6.283478 6.283478l0 0c-3.4702454 0 -6.2834473 -2.813202 -6.2834473 -6.283478z" fill-rule="evenodd"/><path fill="#000000" fill-opacity="0.0" d="m379.4672 282.64566l60.0 0l0 42.015747l-60.0 0z" fill-rule="evenodd"/><path fill="#0000ff" d="m389.29532 306.12817l2.546875 -0.265625q0.109375 0.875 0.640625 1.375q0.546875 0.5 1.25 0.5q0.796875 0 1.34375 -0.640625q0.5625 -0.65625 0.5625 -1.96875q0 -1.234375 -0.546875 -1.84375q-0.546875 -0.609375 -1.4375 -0.609375q-1.09375 0 -1.96875 0.96875l-2.078125 -0.296875l1.3125 -6.953125l6.765625 0l0 2.390625l-4.828125 0l-0.40625 2.265625q0.859375 -0.421875 1.75 -0.421875q1.703125 0 2.890625 1.25q1.1875 1.234375 1.1875 3.203125q0 1.65625 -0.953125 2.9375q-1.3125 1.78125 -3.625 1.78125q-1.84375 0 -3.015625 -1.0q-1.15625 -1.0 -1.390625 -2.671875z" fill-rule="nonzero"/><path fill="#000000" d="m403.99496 309.80005l3.3125 -13.8125l1.921875 0l-3.34375 13.8125l-1.890625 0z" fill-rule="nonzero"/><path fill="#cc0000" d="m420.20532 309.56567l0 -2.6875l-5.46875 0l0 -2.234375l5.796875 -8.484375l2.15625 0l0 8.46875l1.65625 0l0 2.25l-1.65625 0l0 2.6875l-2.484375 0zm0 -4.9375l0 -4.5625l-3.078125 4.5625l3.078125 0z" fill-rule="nonzero"/><path fill="#000000" fill-opacity="0.0" d="m540.7244 107.06562l0 0c0 -3.4702682 2.8131714 -6.28347 6.2834473 -6.28347l0 0c1.6665039 0 3.2647095 0.6620102 4.443054 1.8403854c1.1784058 1.1783752 1.8403931 2.7766037 1.8403931 4.4430847l0 0c0 3.4702606 -2.8131714 6.2834625 -6.2834473 6.2834625l0 0c-3.4702759 0 -6.2834473 -2.813202 -6.2834473 -6.2834625z" fill-rule="evenodd"/><path stroke="#38761d" stroke-width="3.0" stroke-linejoin="round" stroke-linecap="butt" d="m540.7244 107.06562l0 0c0 -3.4702682 2.8131714 -6.28347 6.2834473 -6.28347l0 0c1.6665039 0 3.2647095 0.6620102 4.443054 1.8403854c1.1784058 1.1783752 1.8403931 2.7766037 1.8403931 4.4430847l0 0c0 3.4702606 -2.8131714 6.2834625 -6.2834473 6.2834625l0 0c-3.4702759 0 -6.2834473 -2.813202 -6.2834473 -6.2834625z" fill-rule="evenodd"/><path fill="#000000" fill-opacity="0.0" d="m513.82416 108.55643l60.0 0l0 42.015747l-60.0 0z" fill-rule="evenodd"/><path fill="#0000ff" d="m523.62103 124.67955l0 -2.375l8.75 0l0 1.859375q-1.078125 1.0625 -2.203125 3.0625q-1.125 1.984375 -1.71875 4.234375q-0.578125 2.25 -0.5625 4.015625l-2.46875 0q0.0625 -2.765625 1.140625 -5.640625q1.078125 -2.890625 2.875 -5.15625l-5.8125 0z" fill-rule="nonzero"/><path fill="#000000" d="m538.3519 135.7108l3.3125 -13.8125l1.921875 0l-3.34375 13.8125l-1.890625 0z" fill-rule="nonzero"/><path fill="#cc0000" d="m558.2185 125.3983l-2.484375 0.265625q-0.09375 -0.765625 -0.484375 -1.125q-0.375 -0.375 -0.984375 -0.375q-0.8125 0 -1.375 0.734375q-0.546875 0.734375 -0.703125 3.03125q0.96875 -1.125 2.390625 -1.125q1.59375 0 2.734375 1.21875q1.140625 1.21875 1.140625 3.15625q0 2.046875 -1.203125 3.296875q-1.1875 1.234375 -3.078125 1.234375q-2.03125 0 -3.328125 -1.578125q-1.296875 -1.578125 -1.296875 -5.15625q0 -3.671875 1.34375 -5.28125q1.359375 -1.625 3.53125 -1.625q1.53125 0 2.515625 0.859375q1.0 0.84375 1.28125 2.46875zm-5.8125 5.578125q0 1.25 0.578125 1.9375q0.578125 0.671875 1.3125 0.671875q0.71875 0 1.1875 -0.546875q0.46875 -0.5625 0.46875 -1.828125q0 -1.3125 -0.515625 -1.90625q-0.5 -0.609375 -1.265625 -0.609375q-0.734375 0 -1.25 0.578125q-0.515625 0.578125 -0.515625 1.703125z" fill-rule="nonzero"/><path fill="#000000" fill-opacity="0.0" d="m609.6247 240.52756l0 0c0 -3.4702606 2.8131714 -6.2834625 6.2834473 -6.2834625l0 0c1.6664429 0 3.2647095 0.66200256 4.443054 1.8403778c1.1784058 1.1783905 1.8403931 2.7766113 1.8403931 4.4430847l0 0c0 3.4702606 -2.8131714 6.2834625 -6.2834473 6.2834625l0 0c-3.4702759 0 -6.2834473 -2.813202 -6.2834473 -6.2834625z" fill-rule="evenodd"/><path stroke="#38761d" stroke-width="3.0" stroke-linejoin="round" stroke-linecap="butt" d="m609.6247 240.52756l0 0c0 -3.4702606 2.8131714 -6.2834625 6.2834473 -6.2834625l0 0c1.6664429 0 3.2647095 0.66200256 4.443054 1.8403778c1.1784058 1.1783905 1.8403931 2.7766113 1.8403931 4.4430847l0 0c0 3.4702606 -2.8131714 6.2834625 -6.2834473 6.2834625l0 0c-3.4702759 0 -6.2834473 -2.813202 -6.2834473 -6.2834625z" fill-rule="evenodd"/><path fill="#000000" fill-opacity="0.0" d="m582.7244 242.01837l60.0 0l0 42.015747l-60.0 0z" fill-rule="evenodd"/><path fill="#0000ff" d="m601.1932 258.86026l-2.484375 0.265625q-0.09375 -0.765625 -0.484375 -1.125q-0.375 -0.375 -0.984375 -0.375q-0.8125 0 -1.375 0.734375q-0.546875 0.734375 -0.703125 3.03125q0.96875 -1.125 2.390625 -1.125q1.59375 0 2.734375 1.21875q1.140625 1.21875 1.140625 3.15625q0 2.046875 -1.203125 3.296875q-1.1875 1.234375 -3.078125 1.234375q-2.03125 0 -3.328125 -1.578125q-1.296875 -1.578125 -1.296875 -5.15625q0 -3.671875 1.34375 -5.28125q1.359375 -1.6250153 3.53125 -1.6250153q1.53125 0 2.515625 0.85939026q1.0 0.84375 1.28125 2.46875zm-5.8125 5.578125q0 1.25 0.578125 1.9375q0.578125 0.671875 1.3125 0.671875q0.71875 0 1.1875 -0.546875q0.46875 -0.5625 0.46875 -1.828125q0 -1.3125 -0.515625 -1.90625q-0.5 -0.609375 -1.265625 -0.609375q-0.734375 0 -1.25 0.578125q-0.515625 0.578125 -0.515625 1.703125z" fill-rule="nonzero"/><path fill="#000000" d="m607.2522 269.17276l3.3125 -13.812515l1.921875 0l-3.34375 13.812515l-1.890625 0z" fill-rule="nonzero"/><path fill="#cc0000" d="m618.4469 258.1415l0 -2.3750153l8.75 0l0 1.8593903q-1.078125 1.0625 -2.203125 3.0625q-1.125 1.984375 -1.71875 4.234375q-0.578125 2.25 -0.5625 4.015625l-2.46875 0q0.0625 -2.765625 1.140625 -5.640625q1.078125 -2.890625 2.875 -5.15625l-5.8125 0z" fill-rule="nonzero"/><path fill="#000000" fill-opacity="0.0" d="m414.32547 240.53543l252.85037 0" fill-rule="evenodd"/><path stroke="#0000ff" stroke-width="4.0" stroke-linejoin="round" stroke-linecap="butt" d="m414.32547 240.53543l252.85037 0" fill-rule="evenodd"/></g></svg>