<svg version="1.1" viewBox="0.0 0.0 647.1601049868766 608.1128608923884" fill="none" stroke="none" stroke-linecap="square" stroke-miterlimit="10" xmlns:xlink="http://www.w3.org/1999/xlink" xmlns="http://www.w3.org/2000/svg"><clipPath id="p.0"><path d="m0 0l647.1601 0l0 608.11285l-647.1601 0l0 -608.11285z" clip-rule="nonzero"/></clipPath><g clip-path="url(#p.0)"><path fill="#000000" fill-opacity="0.0" d="m0 0l647.1601 0l0 608.11285l-647.1601 0z" fill-rule="evenodd"/><path fill="#000000" fill-opacity="0.0" d="m250.80052 62.217846l0 0c0 -23.769985 19.269394 -43.039368 43.039383 -43.039368l0 0c11.414734 0 22.361969 4.5344906 30.43341 12.60594c8.071472 8.071447 12.605957 19.018679 12.605957 30.433428l0 0c0 23.769993 -19.269379 43.03937 -43.039368 43.03937l0 0c-23.769989 0 -43.039383 -19.269379 -43.039383 -43.03937z" fill-rule="evenodd"/><path stroke="#000000" stroke-width="2.0" stroke-linejoin="round" stroke-linecap="butt" d="m250.80052 62.217846l0 0c0 -23.769985 19.269394 -43.039368 43.039383 -43.039368l0 0c11.414734 0 22.361969 4.5344906 30.43341 12.60594c8.071472 8.071447 12.605957 19.018679 12.605957 30.433428l0 0c0 23.769993 -19.269379 43.03937 -43.039368 43.03937l0 0c-23.769989 0 -43.039383 -19.269379 -43.039383 -43.03937z" fill-rule="evenodd"/><path fill="#0000ff" d="m273.1096 65.59097l2.46875 -0.296875q0.125 0.953125 0.640625 1.453125q0.53125 0.5 1.265625 0.5q0.78125 0 1.328125 -0.59375q0.546875 -0.609375 0.546875 -1.640625q0 -0.953125 -0.53125 -1.5156288q-0.515625 -0.578125 -1.25 -0.578125q-0.5 0 -1.1875 0.203125l0.28125 -2.09375q1.046875 0.03125 1.59375 -0.4375q0.546875 -0.484375 0.546875 -1.28125q0 -0.671875 -0.40625 -1.078125q-0.390625 -0.40625 -1.0625 -0.40625q-0.65625 0 -1.125 0.46875q-0.453125 0.453125 -0.5625 1.328125l-2.359375 -0.40625q0.25 -1.203125 0.734375 -1.921875q0.5 -0.734375 1.390625 -1.140625q0.890625 -0.421875 2.0 -0.421875q1.875 0 3.015625 1.203125q0.9375 0.984375 0.9375 2.21875q0 1.765625 -1.921875 2.8125q1.15625 0.234375 1.84375 1.09375q0.6875 0.859375 0.6875 2.0625038q0 1.765625 -1.296875 3.015625q-1.28125 1.234375 -3.1875 1.234375q-1.8125 0 -3.015625 -1.046875q-1.1875 -1.046875 -1.375 -2.734375z" fill-rule="nonzero"/><path fill="#000000" d="m287.93423 69.37222l3.3125 -13.812504l1.921875 0l-3.34375 13.812504l-1.890625 0z" fill-rule="nonzero"/><path fill="#cc0000" d="m307.7696 66.76285l0 2.375l-8.96875 0q0.140625 -1.34375 0.859375 -2.546875q0.734375 -1.21875 2.890625 -3.2031288q1.734375 -1.625 2.125 -2.1875q0.53125 -0.796875 0.53125 -1.578125q0 -0.84375 -0.46875 -1.296875q-0.453125 -0.46875 -1.265625 -0.46875q-0.796875 0 -1.28125 0.484375q-0.46875 0.46875 -0.546875 1.59375l-2.546875 -0.25q0.234375 -2.109375 1.421875 -3.03125q1.203125 -0.921875 3.015625 -0.921875q1.96875 0 3.09375 1.0625q1.140625 1.0625 1.140625 2.65625q0 0.890625 -0.328125 1.71875q-0.3125 0.8125 -1.015625 1.703125q-0.46875 0.59375 -1.6875 1.7031288q-1.203125 1.109375 -1.53125 1.484375q-0.3125 0.359375 -0.515625 0.703125l5.078125 0z" fill-rule="nonzero"/><path fill="#000000" fill-opacity="0.0" d="m131.40683 236.92389l0 0c0 -23.769989 19.269379 -43.039368 43.039368 -43.039368l0 0c11.414749 0 22.361984 4.534485 30.433426 12.6059265c8.071442 8.071457 12.605942 19.018692 12.605942 30.433441l0 0c0 23.769989 -19.269379 43.039368 -43.039368 43.039368l0 0c-23.769989 0 -43.039368 -19.269379 -43.039368 -43.039368z" fill-rule="evenodd"/><path stroke="#000000" stroke-width="2.0" stroke-linejoin="round" stroke-linecap="butt" d="m131.40683 236.92389l0 0c0 -23.769989 19.269379 -43.039368 43.039368 -43.039368l0 0c11.414749 0 22.361984 4.534485 30.433426 12.6059265c8.071442 8.071457 12.605942 19.018692 12.605942 30.433441l0 0c0 23.769989 -19.269379 43.039368 -43.039368 43.039368l0 0c-23.769989 0 -43.039368 -19.269379 -43.039368 -43.039368z" fill-rule="evenodd"/><path fill="#0000ff" d="m158.13776 230.43764q1.9375 0 3.03125 1.375q1.296875 1.640625 1.296875 5.4375q0 3.796875 -1.3125 5.453125q-1.078125 1.375 -3.015625 1.375q-1.953125 0 -3.15625 -1.5q-1.1875 -1.5 -1.1875 -5.34375q0 -3.78125 1.3125 -5.4375q1.078125 -1.359375 3.03125 -1.359375zm0 2.125q-0.46875 0 -0.84375 0.296875q-0.359375 0.296875 -0.5625 1.0625q-0.25 0.984375 -0.25 3.328125q0 2.359375 0.234375 3.234375q0.234375 0.875 0.59375 1.171875q0.359375 0.296875 0.828125 0.296875q0.453125 0 0.8125 -0.296875q0.375 -0.296875 0.578125 -1.0625q0.265625 -0.984375 0.265625 -3.34375q0 -2.34375 -0.25 -3.21875q-0.234375 -0.875 -0.59375 -1.171875q-0.359375 -0.296875 -0.8125 -0.296875z" fill-rule="nonzero"/><path fill="#000000" d="m168.54053 244.07826l3.3125 -13.8125l1.921875 0l-3.34375 13.8125l-1.890625 0z" fill-rule="nonzero"/><path fill="#cc0000" d="m179.64151 240.29701l2.46875 -0.296875q0.125 0.953125 0.640625 1.453125q0.53125 0.5 1.265625 0.5q0.78125 0 1.328125 -0.59375q0.546875 -0.609375 0.546875 -1.640625q0 -0.953125 -0.53125 -1.515625q-0.515625 -0.578125 -1.25 -0.578125q-0.5 0 -1.1875 0.203125l0.28125 -2.09375q1.046875 0.03125 1.59375 -0.4375q0.546875 -0.484375 0.546875 -1.28125q0 -0.671875 -0.40625 -1.078125q-0.390625 -0.40625 -1.0625 -0.40625q-0.65625 0 -1.125 0.46875q-0.453125 0.453125 -0.5625 1.328125l-2.359375 -0.40625q0.25 -1.203125 0.734375 -1.921875q0.5 -0.734375 1.390625 -1.140625q0.890625 -0.421875 2.0 -0.421875q1.875 0 3.015625 1.203125q0.9375 0.984375 0.9375 2.21875q0 1.765625 -1.921875 2.8125q1.15625 0.234375 1.84375 1.09375q0.6875 0.859375 0.6875 2.0625q0 1.765625 -1.296875 3.015625q-1.28125 1.234375 -3.1875 1.234375q-1.8125 0 -3.015625 -1.046875q-1.1875 -1.046875 -1.375 -2.734375z" fill-rule="nonzero"/><path fill="#000000" fill-opacity="0.0" d="m382.3281 236.92389l0 0c0 -23.769989 19.269379 -43.039368 43.039368 -43.039368l0 0c11.414734 0 22.361969 4.534485 30.43341 12.6059265c8.071472 8.071457 12.605957 19.018692 12.605957 30.433441l0 0c0 23.769989 -19.269379 43.039368 -43.039368 43.039368l0 0c-23.769989 0 -43.039368 -19.269379 -43.039368 -43.039368z" fill-rule="evenodd"/><path stroke="#000000" stroke-width="2.0" stroke-linejoin="round" stroke-linecap="butt" d="m382.3281 236.92389l0 0c0 -23.769989 19.269379 -43.039368 43.039368 -43.039368l0 0c11.414734 0 22.361969 4.534485 30.43341 12.6059265c8.071472 8.071457 12.605957 19.018692 12.605957 30.433441l0 0c0 23.769989 -19.269379 43.039368 -43.039368 43.039368l0 0c-23.769989 0 -43.039368 -19.269379 -43.039368 -43.039368z" fill-rule="evenodd"/><path fill="#0000ff" d="m404.76215 240.40639l2.546875 -0.265625q0.109375 0.875 0.640625 1.375q0.546875 0.5 1.25 0.5q0.796875 0 1.34375 -0.640625q0.5625 -0.65625 0.5625 -1.96875q0 -1.234375 -0.546875 -1.84375q-0.546875 -0.609375 -1.4375 -0.609375q-1.09375 0 -1.96875 0.96875l-2.078125 -0.296875l1.3125 -6.953125l6.765625 0l0 2.390625l-4.828125 0l-0.40625 2.265625q0.859375 -0.421875 1.75 -0.421875q1.703125 0 2.890625 1.25q1.1875 1.234375 1.1875 3.203125q0 1.65625 -0.953125 2.9375q-1.3125 1.78125 -3.625 1.78125q-1.84375 0 -3.015625 -1.0q-1.15625 -1.0 -1.390625 -2.671875z" fill-rule="nonzero"/><path fill="#000000" d="m419.4618 244.07826l3.3125 -13.8125l1.921875 0l-3.34375 13.8125l-1.890625 0z" fill-rule="nonzero"/><path fill="#cc0000" d="m435.67215 243.84389l0 -2.6875l-5.46875 0l0 -2.234375l5.796875 -8.484375l2.15625 0l0 8.46875l1.65625 0l0 2.25l-1.65625 0l0 2.6875l-2.484375 0zm0 -4.9375l0 -4.5625l-3.078125 4.5625l3.078125 0z" fill-rule="nonzero"/><path fill="#000000" fill-opacity="0.0" d="m263.40646 92.651276l-88.944885 101.22835" fill-rule="evenodd"/><path stroke="#0000ff" stroke-width="2.0" stroke-linejoin="round" stroke-linecap="butt" d="m263.40646 92.651276l-88.944885 101.22835" fill-rule="evenodd"/><path fill="#000000" fill-opacity="0.0" d="m324.27332 92.651276l101.10239 101.22835" fill-rule="evenodd"/><path stroke="#0000ff" stroke-width="2.0" stroke-linejoin="round" stroke-linecap="butt" d="m324.27332 92.651276l101.10239 101.22835" fill-rule="evenodd"/><path fill="#000000" fill-opacity="0.0" d="m17.396326 399.97113l0 0c0 -23.769989 19.26938 -43.039368 43.039368 -43.039368l0 0c11.414753 0 22.36198 4.534485 30.43343 12.6059265c8.071449 8.071442 12.605942 19.018677 12.605942 30.433441l0 0c0 23.769989 -19.269386 43.039368 -43.03937 43.039368l0 0c-23.769989 0 -43.039368 -19.269379 -43.039368 -43.039368z" fill-rule="evenodd"/><path stroke="#000000" stroke-width="2.0" stroke-linejoin="round" stroke-linecap="butt" d="m17.396326 399.97113l0 0c0 -23.769989 19.26938 -43.039368 43.039368 -43.039368l0 0c11.414753 0 22.36198 4.534485 30.43343 12.6059265c8.071449 8.071442 12.605942 19.018677 12.605942 30.433441l0 0c0 23.769989 -19.269386 43.039368 -43.03937 43.039368l0 0c-23.769989 0 -43.039368 -19.269379 -43.039368 -43.039368z" fill-rule="evenodd"/><path fill="#0000ff" d="m48.439766 404.5161l0 2.375l-8.96875 0q0.140625 -1.34375 0.859375 -2.546875q0.734375 -1.21875 2.890625 -3.203125q1.734375 -1.625 2.125 -2.1875q0.53125 -0.796875 0.53125 -1.578125q0 -0.84375 -0.46875 -1.296875q-0.453125 -0.46875 -1.265625 -0.46875q-0.796875 0 -1.28125 0.484375q-0.46875 0.46875 -0.546875 1.59375l-2.546875 -0.25q0.234375 -2.109375 1.421875 -3.03125q1.203125 -0.921875 3.015625 -0.921875q1.96875 0 3.09375 1.0625q1.140625 1.0625 1.140625 2.65625q0 0.890625 -0.328125 1.71875q-0.3125 0.8125 -1.015625 1.703125q-0.46875 0.59375 -1.6875 1.703125q-1.203125 1.109375 -1.53125 1.484375q-0.3125 0.359375 -0.515625 0.703125l5.078125 0z" fill-rule="nonzero"/><path fill="#000000" d="m54.530037 407.1255l3.3125 -13.8125l1.921875 0l-3.34375 13.8125l-1.890625 0z" fill-rule="nonzero"/><path fill="#cc0000" d="m70.052895 393.48486q1.9375 0 3.03125 1.375q1.296875 1.640625 1.296875 5.4375q0 3.796875 -1.3125 5.453125q-1.078125 1.375 -3.015625 1.375q-1.953125 0 -3.15625 -1.5q-1.1875 -1.5 -1.1875 -5.34375q0 -3.78125 1.3125 -5.4375q1.078125 -1.359375 3.03125 -1.359375zm0 2.125q-0.46875 0 -0.84375 0.296875q-0.359375 0.296875 -0.5625 1.0625q-0.25 0.984375 -0.25 3.328125q0 2.359375 0.234375 3.234375q0.234375 0.875 0.59375 1.171875q0.359375 0.296875 0.828125 0.296875q0.453125 0 0.8125 -0.296875q0.375 -0.296875 0.578125 -1.0625q0.265625 -0.984375 0.265625 -3.34375q0 -2.34375 -0.25 -3.21875q-0.234375 -0.875 -0.59375 -1.171875q-0.359375 -0.296875 -0.8125 -0.296875z" fill-rule="nonzero"/><path fill="#000000" fill-opacity="0.0" d="m208.23885 399.97113l0 0c0 -23.769989 19.269379 -43.039368 43.039368 -43.039368l0 0c11.414749 0 22.361984 4.534485 30.433426 12.6059265c8.071442 8.071442 12.605957 19.018677 12.605957 30.433441l0 0c0 23.769989 -19.269379 43.039368 -43.039383 43.039368l0 0c-23.769989 0 -43.039368 -19.269379 -43.039368 -43.039368z" fill-rule="evenodd"/><path stroke="#000000" stroke-width="2.0" stroke-linejoin="round" stroke-linecap="butt" d="m208.23885 399.97113l0 0c0 -23.769989 19.269379 -43.039368 43.039368 -43.039368l0 0c11.414749 0 22.361984 4.534485 30.433426 12.6059265c8.071442 8.071442 12.605957 19.018677 12.605957 30.433441l0 0c0 23.769989 -19.269379 43.039368 -43.039383 43.039368l0 0c-23.769989 0 -43.039368 -19.269379 -43.039368 -43.039368z" fill-rule="evenodd"/><path fill="#0000ff" d="m237.18854 406.8911l-2.5625 0l0 -9.640625q-1.40625 1.3125 -3.3125 1.9375l0 -2.328125q1.015625 -0.328125 2.1875 -1.234375q1.171875 -0.921875 1.609375 -2.140625l2.078125 0l0 13.40625z" fill-rule="nonzero"/><path fill="#000000" d="m245.37256 407.1255l3.3125 -13.8125l1.921875 0l-3.34375 13.8125l-1.890625 0z" fill-rule="nonzero"/><path fill="#cc0000" d="m256.59854 403.4536l2.546875 -0.265625q0.109375 0.875 0.640625 1.375q0.546875 0.5 1.25 0.5q0.796875 0 1.34375 -0.640625q0.5625 -0.65625 0.5625 -1.96875q0 -1.234375 -0.546875 -1.84375q-0.546875 -0.609375 -1.4375 -0.609375q-1.09375 0 -1.96875 0.96875l-2.078125 -0.296875l1.3125 -6.953125l6.765625 0l0 2.390625l-4.828125 0l-0.40625 2.265625q0.859375 -0.421875 1.75 -0.421875q1.703125 0 2.890625 1.25q1.1875 1.234375 1.1875 3.203125q0 1.65625 -0.953125 2.9375q-1.3125 1.78125 -3.625 1.78125q-1.84375 0 -3.015625 -1.0q-1.15625 -1.0 -1.390625 -2.671875z" fill-rule="nonzero"/><path fill="#000000" fill-opacity="0.0" d="m144.01276 267.3573l-83.590546 89.57483" fill-rule="evenodd"/><path stroke="#cc0000" stroke-width="2.0" stroke-linejoin="round" stroke-linecap="butt" d="m144.01276 267.3573l-83.590546 89.57483" fill-rule="evenodd"/><path fill="#000000" fill-opacity="0.0" d="m204.87962 267.3573l46.393707 89.57483" fill-rule="evenodd"/><path stroke="#cc0000" stroke-width="2.0" stroke-linejoin="round" stroke-linecap="butt" d="m204.87962 267.3573l46.393707 89.57483" fill-rule="evenodd"/><path fill="#000000" fill-opacity="0.0" d="m468.40683 399.97113l0 0c0 -23.769989 19.269379 -43.039368 43.039368 -43.039368l0 0c11.414764 0 22.361969 4.534485 30.433441 12.6059265c8.071411 8.071442 12.605896 19.018677 12.605896 30.433441l0 0c0 23.769989 -19.269348 43.039368 -43.039337 43.039368l0 0c-23.769989 0 -43.039368 -19.269379 -43.039368 -43.039368z" fill-rule="evenodd"/><path stroke="#000000" stroke-width="2.0" stroke-linejoin="round" stroke-linecap="butt" d="m468.40683 399.97113l0 0c0 -23.769989 19.269379 -43.039368 43.039368 -43.039368l0 0c11.414764 0 22.361969 4.534485 30.433441 12.6059265c8.071411 8.071442 12.605896 19.018677 12.605896 30.433441l0 0c0 23.769989 -19.269348 43.039368 -43.039337 43.039368l0 0c-23.769989 0 -43.039368 -19.269379 -43.039368 -43.039368z" fill-rule="evenodd"/><path fill="#0000ff" d="m499.4815 396.813l-2.484375 0.265625q-0.09375 -0.765625 -0.484375 -1.125q-0.375 -0.375 -0.984375 -0.375q-0.8125 0 -1.375 0.734375q-0.546875 0.734375 -0.703125 3.03125q0.96875 -1.125 2.390625 -1.125q1.59375 0 2.734375 1.21875q1.140625 1.21875 1.140625 3.15625q0 2.046875 -1.203125 3.296875q-1.1875 1.234375 -3.078125 1.234375q-2.03125 0 -3.328125 -1.578125q-1.296875 -1.578125 -1.296875 -5.15625q0 -3.671875 1.34375 -5.28125q1.359375 -1.625 3.53125 -1.625q1.53125 0 2.515625 0.859375q1.0 0.84375 1.28125 2.46875zm-5.8125 5.578125q0 1.25 0.578125 1.9375q0.578125 0.671875 1.3125 0.671875q0.71875 0 1.1875 -0.546875q0.46875 -0.5625 0.46875 -1.828125q0 -1.3125 -0.515625 -1.90625q-0.5 -0.609375 -1.265625 -0.609375q-0.734375 0 -1.25 0.578125q-0.515625 0.578125 -0.515625 1.703125z" fill-rule="nonzero"/><path fill="#000000" d="m505.54053 407.1255l3.3125 -13.8125l1.921875 0l-3.34375 13.8125l-1.890625 0z" fill-rule="nonzero"/><path fill="#cc0000" d="m516.7353 396.09424l0 -2.375l8.75 0l0 1.859375q-1.078125 1.0625 -2.203125 3.0625q-1.125 1.984375 -1.71875 4.234375q-0.578125 2.25 -0.5625 4.015625l-2.46875 0q0.0625 -2.765625 1.140625 -5.640625q1.078125 -2.890625 2.875 -5.15625l-5.8125 0z" fill-rule="nonzero"/><path fill="#000000" fill-opacity="0.0" d="m455.80087 267.3573l55.653564 89.57483" fill-rule="evenodd"/><path stroke="#cc0000" stroke-width="2.0" stroke-linejoin="round" stroke-linecap="butt" d="m455.80087 267.3573l55.653564 89.57483" fill-rule="evenodd"/><path fill="#000000" fill-opacity="0.0" d="m324.27298 399.97113l0 0c0 -23.769989 19.269379 -43.039368 43.039368 -43.039368l0 0c11.414734 0 22.361969 4.534485 30.43341 12.6059265c8.071442 8.071442 12.605957 19.018677 12.605957 30.433441l0 0c0 23.769989 -19.269379 43.039368 -43.039368 43.039368l0 0c-23.769989 0 -43.039368 -19.269379 -43.039368 -43.039368z" fill-rule="evenodd"/><path stroke="#000000" stroke-width="2.0" stroke-linejoin="round" stroke-linecap="butt" d="m324.27298 399.97113l0 0c0 -23.769989 19.269379 -43.039368 43.039368 -43.039368l0 0c11.414734 0 22.361969 4.534485 30.43341 12.6059265c8.071442 8.071442 12.605957 19.018677 12.605957 30.433441l0 0c0 23.769989 -19.269379 43.039368 -43.039368 43.039368l0 0c-23.769989 0 -43.039368 -19.269379 -43.039368 -43.039368z" fill-rule="evenodd"/><path fill="#0000ff" d="m351.6914 406.8911l0 -2.6875l-5.46875 0l0 -2.234375l5.796875 -8.484375l2.15625 0l0 8.46875l1.65625 0l0 2.25l-1.65625 0l0 2.6875l-2.484375 0zm0 -4.9375l0 -4.5625l-3.078125 4.5625l3.078125 0z" fill-rule="nonzero"/><path fill="#000000" d="m361.40668 407.1255l3.3125 -13.8125l1.921875 0l-3.34375 13.8125l-1.890625 0z" fill-rule="nonzero"/><path fill="#cc0000" d="m379.1483 406.8911l-2.5625 0l0 -9.640625q-1.40625 1.3125 -3.3125 1.9375l0 -2.328125q1.015625 -0.328125 2.1875 -1.234375q1.171875 -0.921875 1.609375 -2.140625l2.078125 0l0 13.40625z" fill-rule="nonzero"/><path fill="#000000" fill-opacity="0.0" d="m394.93402 267.3573l-27.62204 89.57483" fill-rule="evenodd"/><path stroke="#cc0000" stroke-width="2.0" stroke-linejoin="round" stroke-linecap="butt" d="m394.93402 267.3573l-27.62204 89.57483" fill-rule="evenodd"/><path fill="#000000" fill-opacity="0.0" d="m541.8793 545.08923l0 0c0 -23.769958 19.269348 -43.039368 43.039368 -43.039368l0 0c11.414734 0 22.362 4.534485 30.43341 12.605957c8.071472 8.071411 12.605957 19.018677 12.605957 30.43341l0 0c0 23.77002 -19.26941 43.039368 -43.039368 43.039368l0 0c-23.77002 0 -43.039368 -19.269348 -43.039368 -43.039368z" fill-rule="evenodd"/><path stroke="#000000" stroke-width="2.0" stroke-linejoin="round" stroke-linecap="butt" d="m541.8793 545.08923l0 0c0 -23.769958 19.269348 -43.039368 43.039368 -43.039368l0 0c11.414734 0 22.362 4.534485 30.43341 12.605957c8.071472 8.071411 12.605957 19.018677 12.605957 30.43341l0 0c0 23.77002 -19.26941 43.039368 -43.039368 43.039368l0 0c-23.77002 0 -43.039368 -19.269348 -43.039368 -43.039368z" fill-rule="evenodd"/><path fill="#0000ff" d="m564.2821 541.21234l0 -2.375l8.75 0l0 1.859375q-1.078125 1.0625 -2.203125 3.0625q-1.125 1.984375 -1.71875 4.234375q-0.578125 2.25 -0.5625 4.015625l-2.46875 0q0.0625 -2.765625 1.140625 -5.640625q1.078125 -2.890625 2.875 -5.15625l-5.8125 0z" fill-rule="nonzero"/><path fill="#000000" d="m579.013 552.2436l3.3125 -13.8125l1.921875 0l-3.34375 13.8125l-1.890625 0z" fill-rule="nonzero"/><path fill="#cc0000" d="m598.8796 541.9311l-2.484375 0.265625q-0.09375 -0.765625 -0.484375 -1.125q-0.375 -0.375 -0.984375 -0.375q-0.8125 0 -1.375 0.734375q-0.546875 0.734375 -0.703125 3.03125q0.96875 -1.125 2.390625 -1.125q1.59375 0 2.734375 1.21875q1.140625 1.21875 1.140625 3.15625q0 2.046875 -1.203125 3.296875q-1.1875 1.234375 -3.078125 1.234375q-2.03125 0 -3.328125 -1.578125q-1.296875 -1.578125 -1.296875 -5.15625q0 -3.671875 1.34375 -5.28125q1.359375 -1.625 3.53125 -1.625q1.53125 0 2.515625 0.859375q1.0 0.84375 1.28125 2.46875zm-5.8125 5.578125q0 1.25 0.578125 1.9375q0.578125 0.671875 1.3125 0.671875q0.71875 0 1.1875 -0.546875q0.46875 -0.5625 0.46875 -1.828125q0 -1.3125 -0.515625 -1.90625q-0.5 -0.609375 -1.265625 -0.609375q-0.734375 0 -1.25 0.578125q-0.515625 0.578125 -0.515625 1.703125z" fill-rule="nonzero"/><path fill="#000000" fill-opacity="0.0" d="m541.87964 430.40457l43.02362 71.653534" fill-rule="evenodd"/><path stroke="#0000ff" stroke-width="2.0" stroke-linejoin="round" stroke-linecap="butt" d="m541.87964 430.40457l43.02362 71.653534" fill-rule="evenodd"/></g></svg>